<mxfile host="app.diagrams.net" modified="2024-03-20T22:30:15.840Z" agent="Mozilla/5.0 (Windows NT 10.0; Win64; x64; rv:123.0) Gecko/20100101 Firefox/123.0" etag="zH3KgdfdQnN3lSSJzU1C" version="24.0.7" type="github">
  <diagram id="R2lEEEUBdFMjLlhIrx00" name="Page-1">
    <mxGraphModel dx="1750" dy="943" grid="1" gridSize="10" guides="1" tooltips="1" connect="1" arrows="1" fold="1" page="1" pageScale="1" pageWidth="700" pageHeight="1000" math="0" shadow="0" extFonts="Permanent Marker^https://fonts.googleapis.com/css?family=Permanent+Marker">
      <root>
        <mxCell id="0" />
        <mxCell id="1" parent="0" />
        <mxCell id="afSQ8ZeILvtfSbpqYhhZ-14" value="" style="rhombus;whiteSpace=wrap;html=1;" vertex="1" parent="1">
          <mxGeometry x="1100" y="640" width="100" height="100" as="geometry" />
        </mxCell>
        <mxCell id="afSQ8ZeILvtfSbpqYhhZ-12" value="" style="rhombus;whiteSpace=wrap;html=1;" vertex="1" parent="1">
          <mxGeometry x="1085" y="260" width="100" height="100" as="geometry" />
        </mxCell>
        <mxCell id="afSQ8ZeILvtfSbpqYhhZ-9" value="" style="rhombus;whiteSpace=wrap;html=1;" vertex="1" parent="1">
          <mxGeometry x="20" y="630" width="100" height="100" as="geometry" />
        </mxCell>
        <mxCell id="WGg6MWx6K_NsCTq0mTEu-37" value="&lt;font face=&quot;Comic Sans MS&quot;&gt;User&lt;/font&gt;" style="text;strokeColor=none;fillColor=none;html=1;fontSize=24;fontStyle=1;verticalAlign=middle;align=center;labelBorderColor=none;" parent="1" vertex="1">
          <mxGeometry x="340" y="70" width="100" height="40" as="geometry" />
        </mxCell>
        <mxCell id="WGg6MWx6K_NsCTq0mTEu-38" value="&lt;div style=&quot;font-size: 14px;&quot; align=&quot;left&quot;&gt;&lt;font face=&quot;Comic Sans MS&quot;&gt;&lt;u&gt;Username&lt;/u&gt;&lt;/font&gt;&lt;/div&gt;&lt;div style=&quot;font-size: 14px;&quot; align=&quot;left&quot;&gt;&lt;font face=&quot;Comic Sans MS&quot;&gt;Password&lt;/font&gt;&lt;/div&gt;&lt;div style=&quot;font-size: 14px;&quot; align=&quot;left&quot;&gt;&lt;font face=&quot;Comic Sans MS&quot;&gt;Phone Number&lt;/font&gt;&lt;/div&gt;&lt;div style=&quot;font-size: 14px;&quot; align=&quot;left&quot;&gt;&lt;font face=&quot;Comic Sans MS&quot;&gt;Email&lt;br&gt;&lt;/font&gt;&lt;/div&gt;" style="rounded=0;whiteSpace=wrap;html=1;" parent="1" vertex="1">
          <mxGeometry x="320" y="127.5" width="140" height="90" as="geometry" />
        </mxCell>
        <mxCell id="WGg6MWx6K_NsCTq0mTEu-39" value="&lt;font face=&quot;Comic Sans MS&quot;&gt;Book&lt;/font&gt;" style="text;strokeColor=none;fillColor=none;html=1;fontSize=24;fontStyle=1;verticalAlign=middle;align=center;" parent="1" vertex="1">
          <mxGeometry x="1100" y="60" width="100" height="40" as="geometry" />
        </mxCell>
        <mxCell id="WGg6MWx6K_NsCTq0mTEu-41" value="&lt;div align=&quot;left&quot; style=&quot;font-size: 14px;&quot;&gt;&lt;font style=&quot;font-size: 14px;&quot;&gt;&lt;u&gt;Book-Id&lt;/u&gt;&lt;/font&gt;&lt;/div&gt;&lt;div align=&quot;left&quot; style=&quot;font-size: 14px;&quot;&gt;&lt;font style=&quot;font-size: 14px;&quot;&gt;&lt;u&gt;Prescription&lt;/u&gt;&lt;/font&gt;&lt;/div&gt;&lt;div style=&quot;font-size: 14px;&quot;&gt;&lt;font style=&quot;font-size: 14px;&quot;&gt;Author&lt;/font&gt;&lt;/div&gt;&lt;div style=&quot;font-size: 14px;&quot;&gt;&lt;font style=&quot;font-size: 14px;&quot;&gt;Type&lt;/font&gt;&lt;/div&gt;&lt;div style=&quot;font-size: 14px;&quot;&gt;&lt;font style=&quot;font-size: 14px;&quot;&gt;Genre&lt;/font&gt;&lt;/div&gt;" style="rounded=0;whiteSpace=wrap;html=1;fontFamily=Comic Sans MS;" parent="1" vertex="1">
          <mxGeometry x="1090" y="120" width="120" height="100" as="geometry" />
        </mxCell>
        <mxCell id="WGg6MWx6K_NsCTq0mTEu-43" value="&lt;div&gt;&lt;font style=&quot;font-size: 13px;&quot; face=&quot;Comic Sans MS&quot;&gt;Username&lt;/font&gt;&lt;/div&gt;&lt;div&gt;&lt;font style=&quot;font-size: 13px;&quot; face=&quot;Comic Sans MS&quot;&gt;BookId&lt;br&gt;&lt;/font&gt;&lt;/div&gt;" style="rhombus;whiteSpace=wrap;html=1;" parent="1" vertex="1">
          <mxGeometry x="730" y="130" width="110" height="80" as="geometry" />
        </mxCell>
        <mxCell id="WGg6MWx6K_NsCTq0mTEu-44" value="&lt;font face=&quot;Comic Sans MS&quot;&gt;Favorite List&lt;br&gt;&lt;/font&gt;" style="text;strokeColor=none;fillColor=none;html=1;fontSize=24;fontStyle=1;verticalAlign=middle;align=center;" parent="1" vertex="1">
          <mxGeometry x="735" y="70" width="100" height="40" as="geometry" />
        </mxCell>
        <mxCell id="WGg6MWx6K_NsCTq0mTEu-46" value="" style="endArrow=none;html=1;rounded=0;entryX=0;entryY=0.5;entryDx=0;entryDy=0;exitX=1;exitY=0.5;exitDx=0;exitDy=0;" parent="1" source="WGg6MWx6K_NsCTq0mTEu-38" target="WGg6MWx6K_NsCTq0mTEu-43" edge="1">
          <mxGeometry width="50" height="50" relative="1" as="geometry">
            <mxPoint x="400" y="290" as="sourcePoint" />
            <mxPoint x="450" y="240" as="targetPoint" />
          </mxGeometry>
        </mxCell>
        <mxCell id="WGg6MWx6K_NsCTq0mTEu-47" value="" style="endArrow=none;html=1;rounded=0;entryX=0;entryY=0.5;entryDx=0;entryDy=0;exitX=1;exitY=0.5;exitDx=0;exitDy=0;" parent="1" source="WGg6MWx6K_NsCTq0mTEu-43" target="WGg6MWx6K_NsCTq0mTEu-41" edge="1">
          <mxGeometry width="50" height="50" relative="1" as="geometry">
            <mxPoint x="400" y="290" as="sourcePoint" />
            <mxPoint x="450" y="240" as="targetPoint" />
          </mxGeometry>
        </mxCell>
        <mxCell id="WGg6MWx6K_NsCTq0mTEu-50" value="&lt;div&gt;&lt;font face=&quot;Comic Sans MS&quot;&gt;Username&lt;/font&gt;&lt;/div&gt;&lt;div&gt;&lt;font face=&quot;NOxf-u_4CmnmiJUvCoG2&quot;&gt;BookId&lt;/font&gt;&lt;/div&gt;&lt;div&gt;&lt;font face=&quot;NOxf-u_4CmnmiJUvCoG2&quot;&gt;Page&lt;br&gt;&lt;/font&gt;&lt;/div&gt;" style="rhombus;whiteSpace=wrap;html=1;" parent="1" vertex="1">
          <mxGeometry x="650" y="310" width="130" height="80" as="geometry" />
        </mxCell>
        <mxCell id="WGg6MWx6K_NsCTq0mTEu-51" value="&lt;font face=&quot;Comic Sans MS&quot;&gt;Rading Books&lt;br&gt;&lt;/font&gt;" style="text;strokeColor=none;fillColor=none;html=1;fontSize=24;fontStyle=1;verticalAlign=middle;align=center;" parent="1" vertex="1">
          <mxGeometry x="665" y="250" width="100" height="40" as="geometry" />
        </mxCell>
        <mxCell id="WGg6MWx6K_NsCTq0mTEu-56" value="" style="endArrow=none;html=1;rounded=0;exitX=0;exitY=0.5;exitDx=0;exitDy=0;entryX=0.5;entryY=1;entryDx=0;entryDy=0;" parent="1" source="WGg6MWx6K_NsCTq0mTEu-50" target="WGg6MWx6K_NsCTq0mTEu-38" edge="1">
          <mxGeometry width="50" height="50" relative="1" as="geometry">
            <mxPoint x="380" y="330" as="sourcePoint" />
            <mxPoint x="450" y="240" as="targetPoint" />
          </mxGeometry>
        </mxCell>
        <mxCell id="WGg6MWx6K_NsCTq0mTEu-57" value="" style="endArrow=none;html=1;rounded=0;entryX=0.5;entryY=1;entryDx=0;entryDy=0;exitX=1;exitY=0.5;exitDx=0;exitDy=0;" parent="1" source="WGg6MWx6K_NsCTq0mTEu-50" target="WGg6MWx6K_NsCTq0mTEu-41" edge="1">
          <mxGeometry width="50" height="50" relative="1" as="geometry">
            <mxPoint x="400" y="290" as="sourcePoint" />
            <mxPoint x="450" y="240" as="targetPoint" />
          </mxGeometry>
        </mxCell>
        <mxCell id="Ivra6XouOfreSbeCau9g-1" value="&lt;div style=&quot;font-size: 14px;&quot;&gt;&lt;font style=&quot;font-size: 14px;&quot; face=&quot;Comic Sans MS&quot;&gt;Comment&lt;/font&gt;&lt;/div&gt;&lt;div style=&quot;font-size: 14px;&quot;&gt;&lt;font style=&quot;font-size: 14px;&quot; face=&quot;cnri7KbCF3ekAPo07FWo&quot;&gt;&lt;font style=&quot;font-size: 14px;&quot;&gt;Score&lt;/font&gt;&lt;/font&gt;&lt;font style=&quot;font-size: 14px;&quot; face=&quot;cnri7KbCF3ekAPo07FWo&quot;&gt;&lt;br&gt;&lt;/font&gt;&lt;/div&gt;" style="shape=ext;margin=3;double=1;whiteSpace=wrap;html=1;align=center;" parent="1" vertex="1">
          <mxGeometry x="1070" y="400" width="110" height="80" as="geometry" />
        </mxCell>
        <mxCell id="Ivra6XouOfreSbeCau9g-2" value="&lt;font face=&quot;Comic Sans MS&quot;&gt;Comment&lt;/font&gt;" style="text;strokeColor=none;fillColor=none;html=1;fontSize=24;fontStyle=1;verticalAlign=middle;align=center;" parent="1" vertex="1">
          <mxGeometry x="1075" y="490" width="100" height="40" as="geometry" />
        </mxCell>
        <mxCell id="Ivra6XouOfreSbeCau9g-3" value="&lt;font face=&quot;Comic Sans MS&quot;&gt;Book-Comment&lt;/font&gt;" style="rhombus;whiteSpace=wrap;html=1;" parent="1" vertex="1">
          <mxGeometry x="1095" y="270" width="80" height="80" as="geometry" />
        </mxCell>
        <mxCell id="Ivra6XouOfreSbeCau9g-4" value="" style="endArrow=classic;html=1;rounded=0;entryX=0.5;entryY=1;entryDx=0;entryDy=0;exitX=0.5;exitY=0;exitDx=0;exitDy=0;" parent="1" source="Ivra6XouOfreSbeCau9g-3" target="WGg6MWx6K_NsCTq0mTEu-41" edge="1">
          <mxGeometry width="50" height="50" relative="1" as="geometry">
            <mxPoint x="400" y="360" as="sourcePoint" />
            <mxPoint x="450" y="310" as="targetPoint" />
          </mxGeometry>
        </mxCell>
        <mxCell id="Ivra6XouOfreSbeCau9g-5" value="" style="endArrow=none;html=1;rounded=0;entryX=0.5;entryY=1;entryDx=0;entryDy=0;exitX=0.582;exitY=0.025;exitDx=0;exitDy=0;exitPerimeter=0;" parent="1" source="Ivra6XouOfreSbeCau9g-1" target="afSQ8ZeILvtfSbpqYhhZ-12" edge="1">
          <mxGeometry width="50" height="50" relative="1" as="geometry">
            <mxPoint x="400" y="360" as="sourcePoint" />
            <mxPoint x="450" y="310" as="targetPoint" />
          </mxGeometry>
        </mxCell>
        <mxCell id="Ivra6XouOfreSbeCau9g-6" value="" style="endArrow=none;html=1;rounded=0;entryX=0.58;entryY=0.98;entryDx=0;entryDy=0;entryPerimeter=0;" parent="1" target="afSQ8ZeILvtfSbpqYhhZ-12" edge="1">
          <mxGeometry width="50" height="50" relative="1" as="geometry">
            <mxPoint x="1143" y="410" as="sourcePoint" />
            <mxPoint x="450" y="310" as="targetPoint" />
          </mxGeometry>
        </mxCell>
        <mxCell id="Ivra6XouOfreSbeCau9g-7" value="&lt;font style=&quot;font-size: 17px;&quot; face=&quot;Comic Sans MS&quot;&gt;Note&lt;/font&gt;" style="rhombus;whiteSpace=wrap;html=1;" parent="1" vertex="1">
          <mxGeometry x="360" y="410" width="80" height="80" as="geometry" />
        </mxCell>
        <mxCell id="Ivra6XouOfreSbeCau9g-10" value="" style="endArrow=none;html=1;rounded=0;exitX=1;exitY=0.5;exitDx=0;exitDy=0;" parent="1" source="Ivra6XouOfreSbeCau9g-7" edge="1">
          <mxGeometry width="50" height="50" relative="1" as="geometry">
            <mxPoint x="400" y="360" as="sourcePoint" />
            <mxPoint x="1070" y="450" as="targetPoint" />
          </mxGeometry>
        </mxCell>
        <mxCell id="Ivra6XouOfreSbeCau9g-11" value="" style="endArrow=classic;html=1;rounded=0;entryX=0.5;entryY=1;entryDx=0;entryDy=0;exitX=0.5;exitY=0;exitDx=0;exitDy=0;" parent="1" source="Ivra6XouOfreSbeCau9g-7" target="WGg6MWx6K_NsCTq0mTEu-38" edge="1">
          <mxGeometry width="50" height="50" relative="1" as="geometry">
            <mxPoint x="400" y="360" as="sourcePoint" />
            <mxPoint x="450" y="310" as="targetPoint" />
          </mxGeometry>
        </mxCell>
        <mxCell id="afSQ8ZeILvtfSbpqYhhZ-1" value="&lt;div&gt;Username&lt;/div&gt;&lt;div&gt;Book-id&lt;br&gt;&lt;/div&gt;" style="rhombus;whiteSpace=wrap;html=1;" vertex="1" parent="1">
          <mxGeometry x="675" y="560" width="80" height="80" as="geometry" />
        </mxCell>
        <mxCell id="afSQ8ZeILvtfSbpqYhhZ-2" value="&lt;font face=&quot;Comic Sans MS&quot;&gt;Buy&lt;/font&gt;" style="text;strokeColor=none;fillColor=none;html=1;fontSize=24;fontStyle=1;verticalAlign=middle;align=center;" vertex="1" parent="1">
          <mxGeometry x="665" y="500" width="100" height="40" as="geometry" />
        </mxCell>
        <mxCell id="afSQ8ZeILvtfSbpqYhhZ-3" value="" style="endArrow=none;html=1;rounded=0;exitX=0;exitY=0.5;exitDx=0;exitDy=0;entryX=0.5;entryY=1;entryDx=0;entryDy=0;" edge="1" parent="1" source="afSQ8ZeILvtfSbpqYhhZ-1" target="WGg6MWx6K_NsCTq0mTEu-38">
          <mxGeometry width="50" height="50" relative="1" as="geometry">
            <mxPoint x="400" y="520" as="sourcePoint" />
            <mxPoint x="450" y="470" as="targetPoint" />
          </mxGeometry>
        </mxCell>
        <mxCell id="afSQ8ZeILvtfSbpqYhhZ-4" value="" style="endArrow=none;html=1;rounded=0;exitX=1;exitY=0.5;exitDx=0;exitDy=0;entryX=0.5;entryY=1;entryDx=0;entryDy=0;" edge="1" parent="1" source="afSQ8ZeILvtfSbpqYhhZ-1" target="WGg6MWx6K_NsCTq0mTEu-41">
          <mxGeometry width="50" height="50" relative="1" as="geometry">
            <mxPoint x="400" y="460" as="sourcePoint" />
            <mxPoint x="450" y="410" as="targetPoint" />
          </mxGeometry>
        </mxCell>
        <mxCell id="afSQ8ZeILvtfSbpqYhhZ-7" value="&lt;font style=&quot;font-size: 21px;&quot; face=&quot;Comic Sans MS&quot;&gt;Cart&lt;/font&gt;" style="shape=ext;margin=3;double=1;whiteSpace=wrap;html=1;align=center;" vertex="1" parent="1">
          <mxGeometry x="350" y="650" width="140" height="80" as="geometry" />
        </mxCell>
        <mxCell id="afSQ8ZeILvtfSbpqYhhZ-8" value="&lt;font face=&quot;Comic Sans MS&quot;&gt;User_Cart&lt;/font&gt;" style="rhombus;whiteSpace=wrap;html=1;" vertex="1" parent="1">
          <mxGeometry x="30" y="640" width="80" height="80" as="geometry" />
        </mxCell>
        <mxCell id="afSQ8ZeILvtfSbpqYhhZ-10" value="" style="endArrow=classic;html=1;rounded=0;exitX=1;exitY=0.5;exitDx=0;exitDy=0;entryX=0;entryY=0.363;entryDx=0;entryDy=0;entryPerimeter=0;" edge="1" parent="1" source="afSQ8ZeILvtfSbpqYhhZ-9" target="afSQ8ZeILvtfSbpqYhhZ-7">
          <mxGeometry width="50" height="50" relative="1" as="geometry">
            <mxPoint x="400" y="570" as="sourcePoint" />
            <mxPoint x="450" y="520" as="targetPoint" />
          </mxGeometry>
        </mxCell>
        <mxCell id="afSQ8ZeILvtfSbpqYhhZ-11" value="" style="endArrow=classic;html=1;rounded=0;exitX=0.5;exitY=0;exitDx=0;exitDy=0;entryX=0;entryY=1;entryDx=0;entryDy=0;" edge="1" parent="1" source="afSQ8ZeILvtfSbpqYhhZ-9" target="WGg6MWx6K_NsCTq0mTEu-38">
          <mxGeometry width="50" height="50" relative="1" as="geometry">
            <mxPoint x="400" y="570" as="sourcePoint" />
            <mxPoint x="320" y="230" as="targetPoint" />
            <Array as="points">
              <mxPoint x="320" y="630" />
            </Array>
          </mxGeometry>
        </mxCell>
        <mxCell id="afSQ8ZeILvtfSbpqYhhZ-13" value="&lt;font face=&quot;Comic Sans MS&quot;&gt;Book_Cart&lt;/font&gt;" style="rhombus;whiteSpace=wrap;html=1;" vertex="1" parent="1">
          <mxGeometry x="1110" y="650" width="80" height="80" as="geometry" />
        </mxCell>
        <mxCell id="afSQ8ZeILvtfSbpqYhhZ-15" value="" style="endArrow=none;html=1;rounded=0;exitX=1;exitY=0.5;exitDx=0;exitDy=0;entryX=0;entryY=0.5;entryDx=0;entryDy=0;" edge="1" parent="1" source="afSQ8ZeILvtfSbpqYhhZ-7" target="afSQ8ZeILvtfSbpqYhhZ-14">
          <mxGeometry width="50" height="50" relative="1" as="geometry">
            <mxPoint x="400" y="530" as="sourcePoint" />
            <mxPoint x="450" y="480" as="targetPoint" />
          </mxGeometry>
        </mxCell>
        <mxCell id="afSQ8ZeILvtfSbpqYhhZ-16" value="" style="endArrow=none;html=1;rounded=0;exitX=0.5;exitY=0;exitDx=0;exitDy=0;entryX=1;entryY=1;entryDx=0;entryDy=0;" edge="1" parent="1" source="afSQ8ZeILvtfSbpqYhhZ-14" target="WGg6MWx6K_NsCTq0mTEu-41">
          <mxGeometry width="50" height="50" relative="1" as="geometry">
            <mxPoint x="400" y="530" as="sourcePoint" />
            <mxPoint x="450" y="480" as="targetPoint" />
            <Array as="points">
              <mxPoint x="1210" y="640" />
              <mxPoint x="1210" y="440" />
            </Array>
          </mxGeometry>
        </mxCell>
        <mxCell id="afSQ8ZeILvtfSbpqYhhZ-18" value="&lt;div&gt;&lt;font face=&quot;Comic Sans MS&quot;&gt;gift-g-id&lt;/font&gt;&lt;/div&gt;&lt;div&gt;&lt;font face=&quot;Comic Sans MS&quot;&gt;gift-r-id&lt;/font&gt;&lt;/div&gt;&lt;div&gt;&lt;font face=&quot;c_LbgyrrG6FDdpBPeejG&quot;&gt;Book-id&lt;br&gt;&lt;/font&gt;&lt;/div&gt;&lt;div&gt;&lt;font face=&quot;c_LbgyrrG6FDdpBPeejG&quot;&gt;Check&lt;br&gt;&lt;/font&gt;&lt;/div&gt;" style="rhombus;whiteSpace=wrap;html=1;" vertex="1" parent="1">
          <mxGeometry x="100" y="125" width="100" height="95" as="geometry" />
        </mxCell>
        <mxCell id="afSQ8ZeILvtfSbpqYhhZ-19" value="&lt;font face=&quot;Comic Sans MS&quot;&gt;Gift&lt;/font&gt;" style="text;strokeColor=none;fillColor=none;html=1;fontSize=24;fontStyle=1;verticalAlign=middle;align=center;" vertex="1" parent="1">
          <mxGeometry x="130" y="70" width="100" height="40" as="geometry" />
        </mxCell>
        <mxCell id="afSQ8ZeILvtfSbpqYhhZ-25" value="" style="endArrow=none;html=1;rounded=0;exitX=1;exitY=0.5;exitDx=0;exitDy=0;entryX=0;entryY=0.5;entryDx=0;entryDy=0;" edge="1" parent="1" source="afSQ8ZeILvtfSbpqYhhZ-18" target="WGg6MWx6K_NsCTq0mTEu-38">
          <mxGeometry width="50" height="50" relative="1" as="geometry">
            <mxPoint x="610" y="510" as="sourcePoint" />
            <mxPoint x="660" y="460" as="targetPoint" />
          </mxGeometry>
        </mxCell>
        <mxCell id="afSQ8ZeILvtfSbpqYhhZ-26" value="" style="endArrow=none;html=1;rounded=0;exitX=0;exitY=0.5;exitDx=0;exitDy=0;entryX=0;entryY=1;entryDx=0;entryDy=0;" edge="1" parent="1" source="afSQ8ZeILvtfSbpqYhhZ-18" target="WGg6MWx6K_NsCTq0mTEu-38">
          <mxGeometry width="50" height="50" relative="1" as="geometry">
            <mxPoint x="610" y="510" as="sourcePoint" />
            <mxPoint x="360" y="220" as="targetPoint" />
            <Array as="points">
              <mxPoint x="100" y="310" />
              <mxPoint x="280" y="310" />
              <mxPoint x="280" y="218" />
            </Array>
          </mxGeometry>
        </mxCell>
        <mxCell id="afSQ8ZeILvtfSbpqYhhZ-28" value="&lt;font color=&quot;#b266ff&quot; face=&quot;Times New Roman&quot;&gt;gift recipient id&lt;/font&gt;" style="text;html=1;align=center;verticalAlign=middle;resizable=0;points=[];autosize=1;strokeColor=none;fillColor=none;" vertex="1" parent="1">
          <mxGeometry x="200" y="148" width="100" height="30" as="geometry" />
        </mxCell>
        <mxCell id="afSQ8ZeILvtfSbpqYhhZ-29" value="&lt;font color=&quot;#ff99cc&quot; face=&quot;Times New Roman&quot;&gt;gift giver id&lt;/font&gt;" style="text;html=1;align=center;verticalAlign=middle;resizable=0;points=[];autosize=1;strokeColor=none;fillColor=none;" vertex="1" parent="1">
          <mxGeometry x="200" y="280" width="80" height="30" as="geometry" />
        </mxCell>
        <mxCell id="afSQ8ZeILvtfSbpqYhhZ-30" value="" style="endArrow=none;html=1;rounded=0;exitX=0.5;exitY=0;exitDx=0;exitDy=0;entryX=0;entryY=0;entryDx=0;entryDy=0;" edge="1" parent="1" source="afSQ8ZeILvtfSbpqYhhZ-18" target="WGg6MWx6K_NsCTq0mTEu-41">
          <mxGeometry width="50" height="50" relative="1" as="geometry">
            <mxPoint x="350" y="240" as="sourcePoint" />
            <mxPoint x="400" y="190" as="targetPoint" />
            <Array as="points">
              <mxPoint x="150" y="50" />
              <mxPoint x="650" y="50" />
              <mxPoint x="1090" y="50" />
            </Array>
          </mxGeometry>
        </mxCell>
      </root>
    </mxGraphModel>
  </diagram>
</mxfile>
